<svg xmlns="http://www.w3.org/2000/svg" viewBox="255.7377049180328 101.67999999999999 285.24590163934425 285.35999999999996" width="87" height="87">
<path d="M 419.75 1.29 C 456.87 9.26 493.93 17.58 530.80 26.62 C 580.62 38.71 629.98 52.56 678.86 67.99 C 715.06 79.42 750.83 91.80 786.10 105.87 C 790.56 107.84 795.77 109.35 799.55 112.49 C 786.81 119.27 773.10 124.52 759.67 129.73 C 729.23 141.34 697.95 151.39 666.78 160.82 C 664.90 161.47 662.84 162.03 661.48 163.57 C 660.24 165.10 660.09 167.07 660.11 168.97 C 661.49 191.39 658.33 214.92 654.66 237.03 C 654.35 239.63 653.49 243.14 656.22 244.77 C 659.33 246.82 662.26 248.51 663.94 252.03 C 667.33 258.61 667.47 268.75 661.25 273.79 C 667.95 288.13 668.88 303.45 669.77 319.00 C 669.74 326.41 671.12 333.63 671.50 341.02 C 672.40 348.27 672.98 355.55 674.03 362.78 C 675.58 380.29 675.83 398.54 673.28 415.97 C 671.49 436.34 672.05 456.86 675.57 477.02 C 676.16 480.63 677.11 484.11 677.15 487.80 C 674.47 486.50 673.64 484.14 672.23 481.73 C 668.13 474.11 664.68 466.23 662.60 457.80 C 660.23 448.68 659.84 439.33 660.62 429.96 C 661.06 411.75 661.61 393.60 660.40 375.40 C 659.24 388.19 659.89 401.25 658.22 414.01 C 657.04 431.19 654.10 448.23 648.33 464.49 C 647.97 465.47 647.21 466.19 646.03 466.65 C 644.84 466.09 644.23 465.20 644.20 463.98 C 643.56 459.96 642.41 456.09 640.18 452.65 C 639.01 462.92 639.58 473.02 640.11 483.29 C 635.93 480.56 634.74 476.48 632.71 472.19 C 626.80 458.65 624.41 443.68 623.36 429.03 C 622.68 412.62 622.80 396.21 624.79 379.89 C 621.82 393.35 620.32 407.29 618.95 421.00 C 618.73 430.58 618.23 440.53 619.91 450.00 C 621.57 464.90 626.67 479.11 634.25 492.00 L 632.46 492.00 C 629.31 490.93 626.79 487.83 624.55 485.47 C 614.95 474.77 610.83 460.71 608.63 446.79 C 608.00 440.81 606.85 435.03 606.85 429.00 C 606.77 421.01 606.58 412.69 607.80 404.80 C 609.06 389.26 612.15 373.74 615.37 358.49 C 621.67 329.60 630.04 301.60 639.11 273.48 C 634.20 267.99 632.29 260.37 635.33 253.45 C 636.97 248.60 641.44 247.00 641.96 241.98 C 644.95 219.75 647.47 197.34 649.38 174.99 C 649.40 172.66 651.07 168.48 649.00 166.81 C 647.56 166.91 646.16 167.22 644.77 167.59 C 625.49 173.27 606.15 178.76 586.88 184.44 C 587.13 189.97 586.94 195.52 587.39 201.02 C 589.74 222.74 591.92 245.49 594.26 267.21 C 595.45 280.76 597.18 294.42 598.03 308.00 C 599.68 320.94 600.16 334.06 602.09 346.98 C 602.49 354.06 604.78 361.64 603.55 368.45 C 602.02 375.29 595.58 380.15 590.42 384.37 C 560.02 408.83 522.65 422.57 484.99 431.20 C 467.29 435.14 449.29 437.95 431.18 439.12 C 423.14 440.20 415.10 440.18 407.00 440.27 C 395.70 440.26 384.19 440.68 372.99 439.12 C 347.64 436.97 322.50 430.95 298.49 422.66 C 253.26 406.97 212.57 382.51 171.43 358.56 C 169.25 357.19 166.59 356.04 164.85 354.13 C 163.21 352.37 164.42 349.98 164.70 347.93 C 175.69 288.58 186.91 228.88 197.48 169.48 C 197.75 168.33 198.02 167.19 198.30 166.05 C 166.86 154.93 135.00 145.06 102.80 136.38 C 89.62 132.72 76.39 129.22 63.20 125.57 C 43.99 120.37 24.95 114.60 5.72 109.48 C 3.71 108.97 1.87 108.30 0.00 107.40 L 0.00 106.59 C 53.76 83.86 108.90 68.29 165.21 53.43 C 191.57 46.30 217.96 39.24 244.48 32.76 C 273.67 25.63 303.09 19.43 332.54 13.49 C 354.47 9.10 376.46 5.07 398.53 1.44 C 405.67 -0.08 412.60 -0.30 419.75 1.29 Z" fill="#000000" />
<path d="M 345.00 141.49 C 398.04 141.51 451.09 141.50 504.13 141.50 C 504.16 155.33 504.14 169.16 504.14 182.99 C 448.60 183.01 393.06 182.99 337.51 183.00 C 337.51 224.67 337.51 266.33 337.51 308.00 C 379.16 308.00 420.80 308.00 462.45 308.00 C 462.45 294.08 462.47 280.16 462.44 266.24 C 434.69 266.25 406.95 266.26 379.20 266.24 C 379.20 252.41 379.20 238.59 379.20 224.76 C 420.85 224.75 462.49 224.75 504.14 224.76 C 504.14 252.50 504.17 280.27 504.12 308.00 C 504.17 324.44 493.67 340.12 478.46 346.32 C 472.97 348.68 466.99 349.76 461.02 349.76 C 420.02 349.74 379.00 349.77 338.00 349.74 C 328.69 349.71 319.46 346.56 312.08 340.89 C 304.09 334.97 298.57 325.76 296.69 316.04 C 295.82 311.78 295.86 307.33 295.86 303.00 C 295.91 262.69 295.83 222.30 295.90 182.00 C 296.06 164.67 308.30 148.72 324.75 143.58 C 331.50 141.19 337.98 141.51 345.00 141.49 Z" fill="#d0a933" />
</svg>